<svg xmlns="http://www.w3.org/2000/svg" version="1.1" width="512px" height="512px" style="shape-rendering:geometricPrecision; text-rendering:geometricPrecision; image-rendering:optimizeQuality; fill-rule:evenodd; clip-rule:evenodd" xmlns:xlink="http://www.w3.org/1999/xlink">
<g><path style="opacity:1" fill="#fefefe" d="M -0.5,-0.5 C 170.167,-0.5 340.833,-0.5 511.5,-0.5C 511.5,170.167 511.5,340.833 511.5,511.5C 340.833,511.5 170.167,511.5 -0.5,511.5C -0.5,340.833 -0.5,170.167 -0.5,-0.5 Z"/></g>
<g><path style="opacity:1" fill="#909090" d="M 260.5,32.5 C 196.998,32.1676 133.664,32.5009 70.5,33.5C 69.9569,33.44 69.6236,33.1067 69.5,32.5C 133.332,31.1684 196.999,31.1684 260.5,32.5 Z"/></g>
<g><path style="opacity:1" fill="#1f1f1f" d="M 73.5,37.5 C 72.6618,37.1583 72.3284,36.4916 72.5,35.5C 103.493,34.1668 134.826,33.5001 166.5,33.5C 197.833,33.6667 229.167,33.8333 260.5,34C 198.167,34.3333 135.833,34.6667 73.5,35C 74.5981,35.7697 74.5981,36.603 73.5,37.5 Z"/></g>
<g><path style="opacity:1" fill="#020404" d="M 260.5,32.5 C 313.984,102.827 367.317,173.327 420.5,244C 366.685,323.311 312.685,402.478 258.5,481.5C 196.331,481.832 134.331,481.499 72.5,480.5C 73.1667,480.167 73.8333,479.833 74.5,479.5C 126.393,403.594 178.726,327.927 231.5,252.5C 178.809,180.815 126.142,109.148 73.5,37.5C 74.5981,36.603 74.5981,35.7697 73.5,35C 135.833,34.6667 198.167,34.3333 260.5,34C 229.167,33.8333 197.833,33.6667 166.5,33.5C 134.826,33.5001 103.493,34.1668 72.5,35.5C 71.5,35.1667 70.8333,34.5 70.5,33.5C 133.664,32.5009 196.998,32.1676 260.5,32.5 Z"/></g>
<g><path style="opacity:1" fill="#017989" d="M 252.5,49.5 C 202.997,49.1678 153.664,49.5011 104.5,50.5C 103.957,50.44 103.624,50.1067 103.5,49.5C 153.332,48.1689 202.998,48.1689 252.5,49.5 Z"/></g>
<g><path style="opacity:1" fill="#02d7f2" d="M 252.5,49.5 C 301.861,114.386 350.861,179.552 399.5,245C 349.906,318.264 299.906,391.264 249.5,464C 201.497,464.833 153.497,464.667 105.5,463.5C 154.377,392.913 203.377,322.413 252.5,252C 203.035,184.893 153.702,117.726 104.5,50.5C 153.664,49.5011 202.997,49.1678 252.5,49.5 Z"/></g>
<g><path style="opacity:1" fill="#1d1d1d" d="M 74.5,479.5 C 75.1174,479.389 75.6174,479.056 76,478.5C 136.43,479.331 196.93,479.831 257.5,480C 196.332,480.832 135.332,480.665 74.5,479.5 Z"/></g>
<g><path style="opacity:1" fill="#b8b8b8" d="M 72.5,480.5 C 134.331,481.499 196.331,481.832 258.5,481.5C 196.332,482.832 133.999,482.832 71.5,481.5C 71.6236,480.893 71.9569,480.56 72.5,480.5 Z"/></g>
</svg>